<svg xmlns="http://www.w3.org/2000/svg" width="16" height="16" viewBox="0 0 16 16" fill="none">
  <path d="M3.75 4H9.25C10.22 4 11 4.78 11 5.75V8.25C11 9.22 10.22 10 9.25 10H6.55L4.5 11.8V10H3.75C2.78 10 2 9.22 2 8.25V5.75C2 4.78 2.78 4 3.75 4Z" stroke="#424242" stroke-width="1.25" stroke-linejoin="round"/>
  <path d="M4.75 6.5H7.25" stroke="#424242" stroke-width="1.25" stroke-linecap="round"/>
  <path d="M4.75 8H8.25" stroke="#424242" stroke-width="1.25" stroke-linecap="round"/>
  <path d="M11.5 1.25L12.28 3.22L14.25 4L12.28 4.78L11.5 6.75L10.72 4.78L8.75 4L10.72 3.22L11.5 1.25Z" fill="#424242"/>
</svg>
