<svg xmlns="http://www.w3.org/2000/svg" width="16" height="16" viewBox="0 0 16 16" fill="none">
  <path d="M3.5 5.25C3.5 4.56 4.06 4 4.75 4H8.18C8.45 4 8.7 4.11 8.89 4.3L10.7 6.11C10.89 6.3 11 6.55 11 6.82V11.25C11 11.94 10.44 12.5 9.75 12.5H4.75C4.06 12.5 3.5 11.94 3.5 11.25V5.25Z" stroke="#C5C5C5" stroke-width="1.25" stroke-linejoin="round"/>
  <path d="M5.1 8H9" stroke="#C5C5C5" stroke-width="1.25" stroke-linecap="round"/>
  <path d="M5.1 10H8.1" stroke="#C5C5C5" stroke-width="1.25" stroke-linecap="round"/>
  <path d="M11.5 1.25L12.28 3.22L14.25 4L12.28 4.78L11.5 6.75L10.72 4.78L8.75 4L10.72 3.22L11.5 1.25Z" fill="#C5C5C5"/>
</svg>
